# xmcd CD database file
#
# Track frame offsets:
#	150
#	15353
#	30863
#	43278
#	57305
#	74917
#	90129
#	103279
#	115730
#	128652
#	145372
#	156617
#	170691
#
# Disc length: 2392 seconds
#
# Revision: 2
# Processed by: cddbd v1.5.2PL0 Copyright (c) Steve Scherf et al.
# Submitted via: CDex 1.51
#
DISCID=b409560d
DTITLE=Kim Simmonds - Solitaire
DYEAR=1997
DGENRE=Blues
TTITLE0=Going Away
TTITLE1=I Keep Calling My Baby
TTITLE2=Blues Vibrations
TTITLE3=Alabama Woman
TTITLE4=Bad Morning
TTITLE5=House Lady Blues
TTITLE6=Solitaire
TTITLE7=Evening Train
TTITLE8=Blind Alley
TTITLE9=Going Home
TTITLE10=I'm Cutting Out
TTITLE11=Depression Blues
TTITLE12=Sugar Babe
EXTD=YEAR: 1997
EXTT0=
EXTT1=
EXTT2=
EXTT3=
EXTT4=
EXTT5=
EXTT6=
EXTT7=
EXTT8=
EXTT9=
EXTT10=
EXTT11=
EXTT12=
PLAYORDER=
